<svg width="16" height="14" viewBox="0 0 16 14" fill="none" xmlns="http://www.w3.org/2000/svg">
<path fill-rule="evenodd" clip-rule="evenodd" d="M6.40006 11.494H1.14923C0.804231 11.494 0.524231 11.214 0.524231 10.869C0.524231 10.524 0.804231 10.244 1.14923 10.244H6.40006C6.74506 10.244 7.02506 10.524 7.02506 10.869C7.02506 11.214 6.74506 11.494 6.40006 11.494" fill="white"/>
<path fill-rule="evenodd" clip-rule="evenodd" d="M13.9924 3.41699H8.74243C8.39743 3.41699 8.11743 3.13699 8.11743 2.79199C8.11743 2.44699 8.39743 2.16699 8.74243 2.16699H13.9924C14.3374 2.16699 14.6174 2.44699 14.6174 2.79199C14.6174 3.13699 14.3374 3.41699 13.9924 3.41699" fill="white"/>
<mask id="mask0_563_183" style="mask-type:luminance" maskUnits="userSpaceOnUse" x="0" y="0" width="6" height="6">
<path fill-rule="evenodd" clip-rule="evenodd" d="M0.5 0.166992H5.68817V5.32666H0.5V0.166992Z" fill="white"/>
</mask>
<g mask="url(#mask0_563_183)">
<path fill-rule="evenodd" clip-rule="evenodd" d="M3.09398 1.41666C2.35315 1.41666 1.74982 2.01332 1.74982 2.74749C1.74982 3.48082 2.35315 4.07666 3.09398 4.07666C3.83565 4.07666 4.43815 3.48082 4.43815 2.74749C4.43815 2.01332 3.83565 1.41666 3.09398 1.41666M3.09398 5.32666C1.66398 5.32666 0.499817 4.16999 0.499817 2.74749C0.499817 1.32499 1.66398 0.166656 3.09398 0.166656C4.52482 0.166656 5.68815 1.32499 5.68815 2.74749C5.68815 4.16999 4.52482 5.32666 3.09398 5.32666" fill="white"/>
</g>
<path fill-rule="evenodd" clip-rule="evenodd" d="M12.4898 9.50667C11.7481 9.50667 11.1448 10.1033 11.1448 10.8367C11.1448 11.5708 11.7481 12.1667 12.4898 12.1667C13.2306 12.1667 13.8331 11.5708 13.8331 10.8367C13.8331 10.1033 13.2306 9.50667 12.4898 9.50667M12.4898 13.4167C11.0589 13.4167 9.89478 12.2592 9.89478 10.8367C9.89478 9.41417 11.0589 8.25667 12.4898 8.25667C13.9198 8.25667 15.0831 9.41417 15.0831 10.8367C15.0831 12.2592 13.9198 13.4167 12.4898 13.4167" fill="white"/>
</svg>
