<svg width="19" height="22" viewBox="0 0 19 22" fill="none" xmlns="http://www.w3.org/2000/svg">
<mask id="mask0_563_221" style="mask-type:luminance" maskUnits="userSpaceOnUse" x="0" y="0" width="19" height="18">
<path fill-rule="evenodd" clip-rule="evenodd" d="M0.500061 0H18.997V17.348H0.500061V0Z" fill="white"/>
</mask>
<g mask="url(#mask0_563_221)">
<path fill-rule="evenodd" clip-rule="evenodd" d="M9.74707 1.5C6.25207 1.5 3.81607 4.238 3.81607 6.695C3.81607 8.774 3.23907 9.735 2.72907 10.583C2.32007 11.264 1.99707 11.802 1.99707 12.971C2.16407 14.857 3.40907 15.848 9.74707 15.848C16.0501 15.848 17.3341 14.813 17.5001 12.906C17.4971 11.802 17.1741 11.264 16.7651 10.583C16.2551 9.735 15.6781 8.774 15.6781 6.695C15.6781 4.238 13.2421 1.5 9.74707 1.5ZM9.74707 17.348C5.07107 17.348 0.845074 17.018 0.500074 13.035C0.497074 11.387 1.00007 10.549 1.44407 9.811C1.89307 9.063 2.31607 8.358 2.31607 6.695C2.31607 3.462 5.30207 0 9.74707 0C14.1921 0 17.1781 3.462 17.1781 6.695C17.1781 8.358 17.6011 9.063 18.0501 9.811C18.4941 10.549 18.9971 11.387 18.9971 12.971C18.6481 17.018 14.4231 17.348 9.74707 17.348Z" fill="#A2A2A2"/>
</g>
<path fill-rule="evenodd" clip-rule="evenodd" d="M9.69827 21.5H9.69627C8.57527 21.499 7.51427 21.005 6.70927 20.108C6.43227 19.801 6.45727 19.326 6.76527 19.05C7.07327 18.772 7.54727 18.797 7.82427 19.106C8.34227 19.683 9.00727 20 9.69727 20H9.69827C10.3913 20 11.0593 19.683 11.5783 19.105C11.8563 18.798 12.3303 18.773 12.6373 19.05C12.9453 19.327 12.9703 19.802 12.6933 20.109C11.8853 21.006 10.8223 21.5 9.69827 21.5Z" fill="#A2A2A2"/>
</svg>
